# xmcd
#
# Track frame offsets: 
#        150
#        16605
#        34973
#        50278
#        65558
#        82888
#        99843
#        116248
#        127388
#        140278
#        154398
#
# Disc length: 2453 seconds
#
# Revision: 6
# Processed by: cddbd v1.5.2PL0 Copyright (c) Steve Scherf et al.
# Submitted via: ExactAudioCopy v0.95b3
#
DISCID=9009930b
DTITLE=Righteous Brothers - Unchained Melody Greatest Hits
DYEAR=1993
DGENRE=Oldie
TTITLE0=Unchained Melody
TTITLE1=Just Once In My Life
TTITLE2=Rock and Roll Heaven
TTITLE3=Soul And Inspiration
TTITLE4=You've Lost That Lovin' Feelin'
TTITLE5=Hung On You
TTITLE6=Try To Find Another Woman
TTITLE7=Little Latin Lupe Lu
TTITLE8=Ebbtide
TTITLE9=My Babe
TTITLE10=Unchained Melody Extended Version
EXTD=
EXTT0=Yesterday: 04.03.94 , 12.09.03
EXTT1=
EXTT2=
EXTT3=
EXTT4=
EXTT5=
EXTT6=
EXTT7=
EXTT8=
EXTT9=
EXTT10=
PLAYORDER=
